<?xml version="1.0" encoding="utf-8"?>
<!-- Generator: Adobe Illustrator 24.2.1, SVG Export Plug-In . SVG Version: 6.00 Build 0)  -->
<svg version="1.1" id="Layer_1" xmlns="http://www.w3.org/2000/svg" xmlns:xlink="http://www.w3.org/1999/xlink" x="0px" y="0px"
	 viewBox="0 0 207.9 24.4" style="enable-background:new 0 0 207.9 24.4;" xml:space="preserve">
<style type="text/css">
	.st0{fill:#F71568;}
	.st1{fill:#EA6EA6;}
	.st2{fill:#E291BA;}
	.st3{fill:#FFFFFF;}
</style>
<g>
	<g>
		<path class="st0" d="M26.7,19.9c0,2.1-1.7,3.8-3.8,3.8l0,0c-2.1,0-3.8-1.7-3.8-3.8V3.6c0-2.1,1.7-3.8,3.8-3.8l0,0
			c2.1,0,3.8,1.7,3.8,3.8C26.7,3.6,26.7,19.9,26.7,19.9z"/>
		<path class="st1" d="M17.2,19.9c0,2.1-1.7,3.8-3.8,3.8l0,0c-2.1,0-3.8-1.7-3.8-3.8v-9.6c0-2.1,1.7-3.8,3.8-3.8l0,0
			c2.1,0,3.8,1.7,3.8,3.8C17.2,10.4,17.2,19.9,17.2,19.9z"/>
		<path class="st2" d="M7.8,19.9c0,2.1-1.7,3.8-3.8,3.8l0,0c-2.1,0-3.8-1.7-3.8-3.8V18c0-2.1,1.7-3.8,3.8-3.8l0,0
			c2.1,0,3.8,1.7,3.8,3.8V19.9z"/>
	</g>
	<g>
		<path class="st3" d="M42.1,6.7c-1.1,0-1.8,0.4-1.8,1.2c0,2.8,8.9,1.2,8.9,7.3c0,3.5-3,5.2-6.8,5.2c-2.8,0-5.8-1-7.8-2.7l1.7-3.5
			c1.7,1.5,4.4,2.6,6.1,2.6c1.3,0,2.1-0.5,2.1-1.4c0-2.9-8.9-1.1-8.9-7.1c0-3.2,2.7-5.2,6.8-5.2c2.5,0,5,0.8,6.8,1.9l-1.7,3.5
			C45.8,7.5,43.5,6.7,42.1,6.7z"/>
		<path class="st3" d="M60.3,6.9c-2.6,0-4.6,2.1-4.6,4.8c0,2.7,2,4.8,4.6,4.8c1.4,0,3-0.8,4.2-2l2.6,2.8c-1.8,1.9-4.5,3.1-7,3.1
			c-5.1,0-8.9-3.7-8.9-8.7c0-4.9,3.9-8.6,9.1-8.6c2.5,0,5.2,1.1,6.9,2.9l-2.6,3.1C63.4,7.8,61.8,6.9,60.3,6.9z"/>
		<path class="st3" d="M74.2,3.3v6.9H81V3.3h4.4v17H81v-6.5h-6.9v6.5h-4.4v-17H74.2z"/>
		<path class="st3" d="M102.9,3.3v3.5h-9V10h8.1v3.5l-8.1,0v3.2h9.2v3.5H89.5v-17H102.9z"/>
		<path class="st3" d="M111.4,3.3l4.5,9.9l4.5-9.9h4.8v17h-3.9l0-10.7l-3.9,9.1h-2.9l-3.9-9.1v10.7h-3.9v-17H111.4z"/>
		<path class="st3" d="M140.5,17.3h-7.3l-1.2,3h-4.6l7.3-17h4.6l7.1,17h-4.7L140.5,17.3z M139.2,13.9l-2.3-6.1l-2.4,6.1H139.2z"/>
		<path class="st3" d="M169.5,9.3c0,4-2.5,6.3-6.8,6.3h-3v4.7h-4.4v-17h7.5C167,3.3,169.5,5.5,169.5,9.3z M165.3,9.4
			c0-1.7-1-2.6-2.8-2.6h-2.8V12h2.8C164.2,12,165.3,11.1,165.3,9.4z"/>
		<path class="st3" d="M182.6,20.3l-2.5-4.7H180h-3.2v4.7h-4.4v-17h7.6c4.5,0,7.1,2.2,7.1,6c0,2.6-1.1,4.5-3,5.5l3.5,5.5
			C187.6,20.3,182.6,20.3,182.6,20.3z M176.8,12h3.2c1.8,0,2.8-0.9,2.8-2.6c0-1.7-1-2.6-2.8-2.6h-3.2V12z"/>
		<path class="st3" d="M207.9,11.8c0,5-3.9,8.7-9.2,8.7c-5.3,0-9.2-3.7-9.2-8.7c0-4.9,3.9-8.6,9.2-8.6
			C203.9,3.2,207.9,6.9,207.9,11.8z M194.1,11.8c0,2.8,2.2,4.9,4.7,4.9c2.5,0,4.6-2.1,4.6-4.9c0-2.8-2-4.8-4.6-4.8
			C196.2,7,194.1,9,194.1,11.8z"/>
	</g>
</g>
</svg>
